# xmcd CD database file
# Copyright (C) 1996 Ti Kan
#
# Track frame offsets:
#	182
#	14790
#	30127
#	47625
#	60907
#	75402
#	100997
#	113702
#	140020
#	154390
#	169760
#	186027
#	205080
#	224205
#
# Disc length: 3374 seconds
#
# Revision: 1
# Processed by: cddbd v1.4b41PL1 Copyright (c) Steve Scherf et al.
# Submitted via: EasyCD 2.21 - (C) 1996 Greg Leichner
#
DISCID=bd0d2c0e
DTITLE=Billy Ocean - Love Really Hurts Without You
DYEAR=1900
DGENRE=
TTITLE0=Love Really Hurts Without You
TTITLE1=Emotions In Motion
TTITLE2=On The Run (Hold On Brother)
TTITLE3=Whose Little Girl Are You?
TTITLE4=Black As He's Painted
TTITLE5=On The Run (Hold On Brother)
TTITLE6=What's Gonna Happen To Our Love
TTITLE7=Wild Beautiful Woman
TTITLE8=Light Up The World With Sunshine
TTITLE9=Can You Feel It
TTITLE10=Eye Of The Storm
TTITLE11=Hungry For Love
TTITLE12=Super Woman, Super Love
TTITLE13=On The Run
EXTD=
EXTT0=
EXTT1=
EXTT2=
EXTT3=
EXTT4=
EXTT5=
EXTT6=
EXTT7=
EXTT8=
EXTT9=
EXTT10=
EXTT11=
EXTT12=
EXTT13=
PLAYORDER=
